<svg width="125" height="125" viewBox="0 0 125 125" fill="none" xmlns="http://www.w3.org/2000/svg">
<path d="M62.5 74.2187C57.9879 74.2226 53.5451 73.1083 49.5689 70.9753C45.5928 68.8424 42.2072 65.7573 39.7148 61.996L46.2227 57.6718C48.0042 60.3582 50.4229 62.5619 53.263 64.0864C56.1032 65.6109 59.2766 66.4087 62.5 66.4087C65.7235 66.4087 68.8968 65.6109 71.737 64.0864C74.5771 62.5619 76.9958 60.3582 78.7774 57.6718L85.2852 61.996C82.7928 65.7573 79.4072 68.8424 75.4311 70.9753C71.4549 73.1083 67.0121 74.2226 62.5 74.2187ZM78.125 31.2499C76.5798 31.2499 75.0694 31.7081 73.7846 32.5666C72.4999 33.425 71.4985 34.6451 70.9072 36.0727C70.3159 37.5002 70.1612 39.0711 70.4626 40.5866C70.7641 42.102 71.5081 43.4941 72.6007 44.5867C73.6933 45.6793 75.0854 46.4233 76.6009 46.7248C78.1163 47.0262 79.6872 46.8715 81.1147 46.2802C82.5423 45.6889 83.7624 44.6876 84.6209 43.4028C85.4793 42.118 85.9375 40.6076 85.9375 39.0624C85.948 38.0336 85.753 37.013 85.3641 36.0604C84.9752 35.1078 84.4001 34.2424 83.6726 33.5149C82.945 32.7873 82.0796 32.2122 81.127 31.8233C80.1745 31.4344 79.1539 31.2395 78.125 31.2499ZM46.875 31.2499C45.3298 31.2499 43.8194 31.7081 42.5346 32.5666C41.2499 33.425 40.2485 34.6451 39.6572 36.0727C39.0659 37.5002 38.9112 39.0711 39.2126 40.5866C39.5141 42.102 40.2581 43.4941 41.3507 44.5867C42.4433 45.6793 43.8354 46.4233 45.3509 46.7248C46.8663 47.0262 48.4372 46.8715 49.8647 46.2802C51.2923 45.6889 52.5124 44.6876 53.3709 43.4028C54.2293 42.118 54.6875 40.6076 54.6875 39.0624C54.698 38.0336 54.503 37.013 54.1141 36.0604C53.7252 35.1078 53.1501 34.2424 52.4226 33.5149C51.695 32.7873 50.8296 32.2122 49.877 31.8233C48.9245 31.4344 47.9039 31.2395 46.875 31.2499Z" fill="#273345"/>
<path d="M69.2812 117.188L62.5 113.281L78.125 85.9375H101.562C102.589 85.939 103.605 85.738 104.554 85.346C105.503 84.9539 106.364 84.3785 107.09 83.6527C107.816 82.9269 108.391 82.0651 108.783 81.1165C109.176 80.168 109.377 79.1514 109.375 78.125V23.4375C109.377 22.4111 109.176 21.3945 108.783 20.446C108.391 19.4974 107.816 18.6356 107.09 17.9098C106.364 17.184 105.503 16.6086 104.554 16.2165C103.605 15.8245 102.589 15.6235 101.562 15.625H23.4375C22.4111 15.6235 21.3945 15.8245 20.446 16.2165C19.4974 16.6086 18.6356 17.184 17.9098 17.9098C17.184 18.6356 16.6086 19.4974 16.2165 20.446C15.8245 21.3945 15.6235 22.4111 15.625 23.4375V78.125C15.6235 79.1514 15.8245 80.168 16.2165 81.1165C16.6086 82.0651 17.184 82.9269 17.9098 83.6527C18.6356 84.3785 19.4974 84.9539 20.446 85.346C21.3945 85.738 22.4111 85.939 23.4375 85.9375H58.5938V93.75H23.4375C19.2935 93.75 15.3192 92.1038 12.389 89.1735C9.4587 86.2433 7.8125 82.269 7.8125 78.125V23.4375C7.81199 21.3855 8.21579 19.3534 9.00084 17.4575C9.78589 15.5615 10.9368 13.8388 12.3878 12.3878C13.8388 10.9368 15.5615 9.78589 17.4575 9.00084C19.3534 8.21579 21.3855 7.81199 23.4375 7.8125H101.562C103.615 7.81199 105.647 8.21579 107.543 9.00084C109.438 9.78589 111.161 10.9368 112.612 12.3878C114.063 13.8388 115.214 15.5615 115.999 17.4575C116.784 19.3534 117.188 21.3855 117.188 23.4375V78.125C117.188 82.269 115.541 86.2433 112.611 89.1735C109.681 92.1038 105.707 93.75 101.562 93.75H82.6758L69.2812 117.188Z" fill="#273345"/>
</svg>
