<svg width="47" height="47" viewBox="0 0 47 47" fill="none" xmlns="http://www.w3.org/2000/svg">
<path d="M23.5 27.9062C21.8034 27.9076 20.133 27.4887 18.6379 26.6867C17.1429 25.8847 15.8699 24.7247 14.9328 23.3104L17.3797 21.6845C18.0496 22.6946 18.959 23.5232 20.0269 24.0964C21.0948 24.6696 22.288 24.9696 23.5 24.9696C24.712 24.9696 25.9052 24.6696 26.9731 24.0964C28.041 23.5232 28.9504 22.6946 29.6203 21.6845L32.0672 23.3104C31.1301 24.7247 29.8571 25.8847 28.3621 26.6867C26.867 27.4887 25.1966 27.9076 23.5 27.9062ZM29.375 11.7499C28.794 11.7499 28.2261 11.9222 27.743 12.245C27.2599 12.5677 26.8834 13.0265 26.6611 13.5633C26.4388 14.1 26.3806 14.6907 26.4939 15.2605C26.6073 15.8303 26.8871 16.3537 27.2979 16.7645C27.7087 17.1753 28.2321 17.4551 28.8019 17.5685C29.3717 17.6818 29.9624 17.6236 30.4991 17.4013C31.0359 17.179 31.4947 16.8025 31.8174 16.3194C32.1402 15.8363 32.3125 15.2684 32.3125 14.6874C32.3164 14.3006 32.2431 13.9168 32.0969 13.5586C31.9507 13.2005 31.7344 12.8751 31.4609 12.6015C31.1873 12.328 30.8619 12.1117 30.5038 11.9655C30.1456 11.8193 29.7619 11.746 29.375 11.7499ZM17.625 11.7499C17.044 11.7499 16.4761 11.9222 15.993 12.245C15.5099 12.5677 15.1334 13.0265 14.9111 13.5633C14.6888 14.1 14.6306 14.6907 14.7439 15.2605C14.8573 15.8303 15.1371 16.3537 15.5479 16.7645C15.9587 17.1753 16.4821 17.4551 17.0519 17.5685C17.6217 17.6818 18.2124 17.6236 18.7491 17.4013C19.2859 17.179 19.7447 16.8025 20.0674 16.3194C20.3902 15.8363 20.5625 15.2684 20.5625 14.6874C20.5664 14.3006 20.4931 13.9168 20.3469 13.5586C20.2007 13.2005 19.9844 12.8751 19.7109 12.6015C19.4373 12.328 19.1119 12.1117 18.7538 11.9655C18.3956 11.8193 18.0119 11.746 17.625 11.7499Z" fill="white"/>
<path d="M26.0497 44.0625L23.5 42.5938L29.375 32.3125H38.1875C38.5734 32.3131 38.9557 32.2375 39.3123 32.0901C39.669 31.9427 39.993 31.7263 40.2659 31.4534C40.5388 31.1805 40.7552 30.8565 40.9026 30.4998C41.05 30.1432 41.1256 29.7609 41.125 29.375V8.8125C41.1256 8.42658 41.05 8.04434 40.9026 7.68768C40.7552 7.33103 40.5388 7.00697 40.2659 6.73408C39.993 6.46119 39.669 6.24484 39.3123 6.09742C38.9557 5.95 38.5734 5.87442 38.1875 5.875H8.8125C8.42658 5.87442 8.04434 5.95 7.68768 6.09742C7.33103 6.24484 7.00697 6.46119 6.73408 6.73408C6.46119 7.00697 6.24484 7.33103 6.09742 7.68768C5.95 8.04434 5.87442 8.42658 5.875 8.8125V29.375C5.87442 29.7609 5.95 30.1432 6.09742 30.4998C6.24484 30.8565 6.46119 31.1805 6.73408 31.4534C7.00697 31.7263 7.33103 31.9427 7.68768 32.0901C8.04434 32.2375 8.42658 32.3131 8.8125 32.3125H22.0312V35.25H8.8125C7.25435 35.25 5.76002 34.631 4.65825 33.5293C3.55647 32.4275 2.9375 30.9331 2.9375 29.375V8.8125C2.93731 8.04093 3.08914 7.27688 3.38431 6.56401C3.67949 5.85113 4.11223 5.2034 4.65782 4.65782C5.2034 4.11223 5.85113 3.67949 6.56401 3.38431C7.27688 3.08914 8.04093 2.93731 8.8125 2.9375H38.1875C38.9591 2.93731 39.7231 3.08914 40.436 3.38431C41.1489 3.67949 41.7966 4.11223 42.3422 4.65782C42.8878 5.2034 43.3205 5.85113 43.6157 6.56401C43.9109 7.27688 44.0627 8.04093 44.0625 8.8125V29.375C44.0625 30.9331 43.4435 32.4275 42.3418 33.5293C41.24 34.631 39.7456 35.25 38.1875 35.25H31.0861L26.0497 44.0625Z" fill="white"/>
</svg>
